<?xml version="1.0" encoding="UTF-8"?>
<svg version="1.1" xmlns="http://www.w3.org/2000/svg" width="765" height="765">
<path d="M0 0 C10.89 0 21.78 0 33 0 C33 10.56 33 21.12 33 32 C64.35 32 95.7 32 128 32 C128 21.44 128 10.88 128 0 C149.45 0 170.9 0 193 0 C193 10.89 193 21.78 193 33 C171.88 33 150.76 33 129 33 C129 43.56 129 54.12 129 65 C118.44 65 107.88 65 97 65 C97 75.23 97 85.46 97 96 C107.56 96 118.12 96 129 96 C129 106.89 129 117.78 129 129 C107.88 129 86.76 129 65 129 C65 139.23 65 149.46 65 160 C75.56 160 86.12 160 97 160 C97 170.56 97 181.12 97 192 C107.23 192 117.46 192 128 192 C128 181.44 128 170.88 128 160 C138.89 160 149.78 160 161 160 C161 170.56 161 181.12 161 192 C171.56 192 182.12 192 193 192 C193 202.89 193 213.78 193 225 C182.44 225 171.88 225 161 225 C161 245.79 161 266.58 161 288 C181.79 288 202.58 288 224 288 C224 277.44 224 266.88 224 256 C234.89 256 245.78 256 257 256 C257 266.89 257 277.78 257 289 C246.44 289 235.88 289 225 289 C225 299.56 225 310.12 225 321 C214.44 321 203.88 321 193 321 C193 341.79 193 362.58 193 384 C203.23 384 213.46 384 224 384 C224 373.44 224 362.88 224 352 C234.56 352 245.12 352 256 352 C256 341.44 256 330.88 256 320 C266.89 320 277.78 320 289 320 C289 341.45 289 362.9 289 385 C278.44 385 267.88 385 257 385 C257 405.79 257 426.58 257 448 C267.56 448 278.12 448 289 448 C289 469.45 289 490.9 289 513 C267.88 513 246.76 513 225 513 C225 534.12 225 555.24 225 577 C214.44 577 203.88 577 193 577 C193 598.12 193 619.24 193 641 C182.44 641 171.88 641 161 641 C161 651.56 161 662.12 161 673 C150.44 673 139.88 673 129 673 C129 683.56 129 694.12 129 705 C-29.73 705 -188.46 705 -352 705 C-352 694.44 -352 683.88 -352 673 C-373.12 673 -394.24 673 -416 673 C-416 651.88 -416 630.76 -416 609 C-426.56 609 -437.12 609 -448 609 C-448 513.63 -448 418.26 -448 320 C-437.44 320 -426.88 320 -416 320 C-416 288.32 -416 256.64 -416 224 C-405.44 224 -394.88 224 -384 224 C-384 213.44 -384 202.88 -384 192 C-373.44 192 -362.88 192 -352 192 C-352 181.44 -352 170.88 -352 160 C-341.44 160 -330.88 160 -320 160 C-320 149.44 -320 138.88 -320 128 C-309.44 128 -298.88 128 -288 128 C-288 117.44 -288 106.88 -288 96 C-277.44 96 -266.88 96 -256 96 C-256 85.44 -256 74.88 -256 64 C-192.64 64 -129.28 64 -64 64 C-64 53.44 -64 42.88 -64 32 C-42.88 32 -21.76 32 0 32 C0 21.44 0 10.88 0 0 Z " fill="#22333B" transform="translate(467,21)"/>
<path d="M0 0 C10.89 0 21.78 0 33 0 C33 10.56 33 21.12 33 32 C64.35 32 95.7 32 128 32 C128 21.44 128 10.88 128 0 C149.45 0 170.9 0 193 0 C193 10.89 193 21.78 193 33 C171.88 33 150.76 33 129 33 C129 43.56 129 54.12 129 65 C118.44 65 107.88 65 97 65 C97 75.23 97 85.46 97 96 C107.56 96 118.12 96 129 96 C129 106.89 129 117.78 129 129 C107.88 129 86.76 129 65 129 C65 139.23 65 149.46 65 160 C75.56 160 86.12 160 97 160 C97 170.56 97 181.12 97 192 C107.23 192 117.46 192 128 192 C128 181.44 128 170.88 128 160 C138.89 160 149.78 160 161 160 C161 170.56 161 181.12 161 192 C171.56 192 182.12 192 193 192 C193 202.89 193 213.78 193 225 C182.44 225 171.88 225 161 225 C161 245.79 161 266.58 161 288 C181.79 288 202.58 288 224 288 C224 277.44 224 266.88 224 256 C234.89 256 245.78 256 257 256 C257 266.89 257 277.78 257 289 C246.44 289 235.88 289 225 289 C225 299.56 225 310.12 225 321 C214.44 321 203.88 321 193 321 C193 341.79 193 362.58 193 384 C203.23 384 213.46 384 224 384 C224 373.44 224 362.88 224 352 C234.56 352 245.12 352 256 352 C256 341.44 256 330.88 256 320 C266.89 320 277.78 320 289 320 C289 341.45 289 362.9 289 385 C278.44 385 267.88 385 257 385 C257 405.79 257 426.58 257 448 C267.56 448 278.12 448 289 448 C289 469.45 289 490.9 289 513 C267.88 513 246.76 513 225 513 C225 534.12 225 555.24 225 577 C214.44 577 203.88 577 193 577 C193 598.12 193 619.24 193 641 C182.44 641 171.88 641 161 641 C161 651.56 161 662.12 161 673 C150.44 673 139.88 673 129 673 C129 683.56 129 694.12 129 705 C-29.73 705 -188.46 705 -352 705 C-352 694.44 -352 683.88 -352 673 C-373.12 673 -394.24 673 -416 673 C-416 651.88 -416 630.76 -416 609 C-426.56 609 -437.12 609 -448 609 C-448 513.63 -448 418.26 -448 320 C-437.44 320 -426.88 320 -416 320 C-416 288.32 -416 256.64 -416 224 C-405.44 224 -394.88 224 -384 224 C-384 213.44 -384 202.88 -384 192 C-373.44 192 -362.88 192 -352 192 C-352 181.44 -352 170.88 -352 160 C-341.44 160 -330.88 160 -320 160 C-320 149.44 -320 138.88 -320 128 C-309.44 128 -298.88 128 -288 128 C-288 117.44 -288 106.88 -288 96 C-277.44 96 -266.88 96 -256 96 C-256 85.44 -256 74.88 -256 64 C-192.64 64 -129.28 64 -64 64 C-64 53.44 -64 42.88 -64 32 C-42.88 32 -21.76 32 0 32 C0 21.44 0 10.88 0 0 Z M-192 129 C-192 139.56 -192 150.12 -192 161 C-213.12 161 -234.24 161 -256 161 C-256 171.56 -256 182.12 -256 193 C-266.56 193 -277.12 193 -288 193 C-288 203.56 -288 214.12 -288 225 C-298.56 225 -309.12 225 -320 225 C-320 235.56 -320 246.12 -320 257 C-330.56 257 -341.12 257 -352 257 C-352 278.12 -352 299.24 -352 321 C-362.56 321 -373.12 321 -384 321 C-384 426.6 -384 532.2 -384 641 C-352.32 641 -320.64 641 -288 641 C-288 619.88 -288 598.76 -288 577 C-277.44 577 -266.88 577 -256 577 C-256 598.12 -256 619.24 -256 641 C-224.32 641 -192.64 641 -160 641 C-160 630.44 -160 619.88 -160 609 C-138.88 609 -117.76 609 -96 609 C-96 619.56 -96 630.12 -96 641 C-64.32 641 -32.64 641 0 641 C0 619.88 0 598.76 0 577 C10.56 577 21.12 577 32 577 C32 598.12 32 619.24 32 641 C63.68 641 95.36 641 128 641 C128 535.4 128 429.8 128 321 C117.44 321 106.88 321 96 321 C96 299.88 96 278.76 96 257 C85.44 257 74.88 257 64 257 C64 246.44 64 235.88 64 225 C53.44 225 42.88 225 32 225 C32 214.44 32 203.88 32 193 C21.44 193 10.88 193 0 193 C0 182.44 0 171.88 0 161 C-21.12 161 -42.24 161 -64 161 C-64 150.44 -64 139.88 -64 129 C-106.24 129 -148.48 129 -192 129 Z " fill="#000000" transform="translate(467,21)"/>
<path d="M0 0 C10.56 0 21.12 0 32 0 C32 21.12 32 42.24 32 64 C42.56 64 53.12 64 64 64 C64 169.6 64 275.2 64 384 C32.32 384 0.64 384 -32 384 C-32 362.88 -32 341.76 -32 320 C-21.44 320 -10.88 320 0 320 C0 330.56 0 341.12 0 352 C10.56 352 21.12 352 32 352 C32 267.52 32 183.04 32 96 C21.44 96 10.88 96 0 96 C0 64.32 0 32.64 0 0 Z " fill="#F3EBEE" transform="translate(531,278)"/>
<path d="M0 0 C10.56 0 21.12 0 32 0 C32 31.68 32 63.36 32 96 C21.44 96 10.88 96 0 96 C0 180.48 0 264.96 0 352 C10.56 352 21.12 352 32 352 C32 341.44 32 330.88 32 320 C42.56 320 53.12 320 64 320 C64 341.12 64 362.24 64 384 C32.32 384 0.64 384 -32 384 C-32 278.4 -32 172.8 -32 64 C-21.44 64 -10.88 64 0 64 C0 42.88 0 21.76 0 0 Z " fill="#F3EBEE" transform="translate(115,278)"/>
<path d="M0 0 C21.12 0 42.24 0 64 0 C64 10.56 64 21.12 64 32 C74.56 32 85.12 32 96 32 C96 53.12 96 74.24 96 96 C85.44 96 74.88 96 64 96 C64 106.56 64 117.12 64 128 C42.88 128 21.76 128 0 128 C0 117.44 0 106.88 0 96 C-10.56 96 -21.12 96 -32 96 C-32 74.88 -32 53.76 -32 32 C-21.44 32 -10.88 32 0 32 C0 21.44 0 10.88 0 0 Z " fill="#F4ECEF" transform="translate(403,310)"/>
<path d="M0 0 C21.12 0 42.24 0 64 0 C64 10.56 64 21.12 64 32 C74.56 32 85.12 32 96 32 C96 53.12 96 74.24 96 96 C85.44 96 74.88 96 64 96 C64 106.56 64 117.12 64 128 C42.88 128 21.76 128 0 128 C0 117.44 0 106.88 0 96 C-10.56 96 -21.12 96 -32 96 C-32 74.88 -32 53.76 -32 32 C-21.44 32 -10.88 32 0 32 C0 21.44 0 10.88 0 0 Z " fill="#F4ECEF" transform="translate(211,310)"/>
<path d="M0 0 C10.56 0 21.12 0 32 0 C32 21.12 32 42.24 32 64 C0.32 64 -31.36 64 -64 64 C-64 53.44 -64 42.88 -64 32 C-42.88 32 -21.76 32 0 32 C0 21.44 0 10.88 0 0 Z " fill="#F3EBEE" transform="translate(435,598)"/>
<path d="M0 0 C10.56 0 21.12 0 32 0 C32 10.56 32 21.12 32 32 C53.12 32 74.24 32 96 32 C96 42.56 96 53.12 96 64 C64.32 64 32.64 64 0 64 C0 42.88 0 21.76 0 0 Z " fill="#F3EBEE" transform="translate(211,598)"/>
<path d="M0 0 C21.12 0 42.24 0 64 0 C64 21.12 64 42.24 64 64 C42.88 64 21.76 64 0 64 C0 42.88 0 21.76 0 0 Z " fill="#F3EBEE" transform="translate(307,566)"/>
<path d="M0 0 C42.24 0 84.48 0 128 0 C128 10.56 128 21.12 128 32 C85.76 32 43.52 32 0 32 C0 21.44 0 10.88 0 0 Z " fill="#F3EBEE" transform="translate(275,150)"/>
<path d="M0 0 C21.12 0 42.24 0 64 0 C64 10.56 64 21.12 64 32 C42.88 32 21.76 32 0 32 C0 21.44 0 10.88 0 0 Z " fill="#F3EBEE" transform="translate(403,182)"/>
<path d="M0 0 C21.12 0 42.24 0 64 0 C64 10.56 64 21.12 64 32 C42.88 32 21.76 32 0 32 C0 21.44 0 10.88 0 0 Z " fill="#F3EBEE" transform="translate(211,182)"/>
<path d="M0 0 C10.89 0 21.78 0 33 0 C33 10.89 33 21.78 33 33 C22.11 33 11.22 33 0 33 C0 22.11 0 11.22 0 0 Z " fill="#000000" transform="translate(691,149)"/>
<path d="M0 0 C10.56 0 21.12 0 32 0 C32 10.56 32 21.12 32 32 C21.44 32 10.88 32 0 32 C0 21.44 0 10.88 0 0 Z " fill="#F2EAED" transform="translate(467,566)"/>
<path d="M0 0 C10.56 0 21.12 0 32 0 C32 10.56 32 21.12 32 32 C21.44 32 10.88 32 0 32 C0 21.44 0 10.88 0 0 Z " fill="#F2EAED" transform="translate(179,566)"/>
<path d="M0 0 C10.56 0 21.12 0 32 0 C32 10.56 32 21.12 32 32 C21.44 32 10.88 32 0 32 C0 21.44 0 10.88 0 0 Z " fill="#F2EAED" transform="translate(499,246)"/>
<path d="M0 0 C10.56 0 21.12 0 32 0 C32 10.56 32 21.12 32 32 C21.44 32 10.88 32 0 32 C0 21.44 0 10.88 0 0 Z " fill="#F2EAED" transform="translate(147,246)"/>
<path d="M0 0 C10.56 0 21.12 0 32 0 C32 10.56 32 21.12 32 32 C21.44 32 10.88 32 0 32 C0 21.44 0 10.88 0 0 Z " fill="#F2EAED" transform="translate(467,214)"/>
<path d="M0 0 C10.56 0 21.12 0 32 0 C32 10.56 32 21.12 32 32 C21.44 32 10.88 32 0 32 C0 21.44 0 10.88 0 0 Z " fill="#F2EAED" transform="translate(179,214)"/>
</svg>
