<?xml version="1.0" encoding="UTF-8"?>
<svg version="1.1" xmlns="http://www.w3.org/2000/svg" width="527" height="527">
<path d="M0 0 C42.24 0 84.48 0 128 0 C128 10.56 128 21.12 128 32 C149.12 32 170.24 32 192 32 C192 42.56 192 53.12 192 64 C202.56 64 213.12 64 224 64 C224 74.56 224 85.12 224 96 C234.56 96 245.12 96 256 96 C256 127.68 256 159.36 256 192 C266.56 192 277.12 192 288 192 C288 276.81 288 361.62 288 449 C277.44 449 266.88 449 256 449 C256 438.44 256 427.88 256 417 C245.44 417 234.88 417 224 417 C224 406.44 224 395.88 224 385 C213.44 385 202.88 385 192 385 C192 395.56 192 406.12 192 417 C181.44 417 170.88 417 160 417 C160 427.56 160 438.12 160 449 C138.88 449 117.76 449 96 449 C96 427.88 96 406.76 96 385 C74.88 385 53.76 385 32 385 C32 406.12 32 427.24 32 449 C10.88 449 -10.24 449 -32 449 C-32 438.44 -32 427.88 -32 417 C-42.56 417 -53.12 417 -64 417 C-64 406.44 -64 395.88 -64 385 C-74.56 385 -85.12 385 -96 385 C-96 395.56 -96 406.12 -96 417 C-106.56 417 -117.12 417 -128 417 C-128 427.56 -128 438.12 -128 449 C-138.56 449 -149.12 449 -160 449 C-160 364.19 -160 279.38 -160 192 C-149.44 192 -138.88 192 -128 192 C-128 160.32 -128 128.64 -128 96 C-117.44 96 -106.88 96 -96 96 C-96 85.44 -96 74.88 -96 64 C-85.44 64 -74.88 64 -64 64 C-64 53.44 -64 42.88 -64 32 C-42.88 32 -21.76 32 0 32 C0 21.44 0 10.88 0 0 Z " fill="#61C26F" transform="translate(200,33)"/>
<path d="M0 0 C21.12 0 42.24 0 64 0 C64 10.56 64 21.12 64 32 C74.56 32 85.12 32 96 32 C96 42.56 96 53.12 96 64 C74.88 64 53.76 64 32 64 C32 85.12 32 106.24 32 128 C42.56 128 53.12 128 64 128 C64 138.56 64 149.12 64 160 C42.88 160 21.76 160 0 160 C0 149.44 0 138.88 0 128 C-10.56 128 -21.12 128 -32 128 C-32 96.32 -32 64.64 -32 32 C-21.44 32 -10.88 32 0 32 C0 21.44 0 10.88 0 0 Z " fill="#F4ECEF" transform="translate(360,130)"/>
<path d="M0 0 C21.12 0 42.24 0 64 0 C64 10.56 64 21.12 64 32 C74.56 32 85.12 32 96 32 C96 42.23 96 52.46 96 63 C74.88 63 53.76 63 32 63 C32 84.45 32 105.9 32 128 C42.56 128 53.12 128 64 128 C64 138.56 64 149.12 64 160 C42.88 160 21.76 160 0 160 C0 149.44 0 138.88 0 128 C-10.56 128 -21.12 128 -32 128 C-32 96.32 -32 64.64 -32 32 C-21.44 32 -10.88 32 0 32 C0 21.44 0 10.88 0 0 Z " fill="#F4ECEF" transform="translate(168,130)"/>
<path d="M0 0 C21.12 0 42.24 0 64 0 C64 10.23 64 20.46 64 31 C74.56 31 85.12 31 96 31 C96 31.33 96 31.66 96 32 C85.44 32 74.88 32 64 32 C64 42.23 64 52.46 64 63 C42.88 63 21.76 63 0 63 C0 42.21 0 21.42 0 0 Z " fill="#21333A" transform="translate(392,194)"/>
<path d="M0 0 C21.12 0 42.24 0 64 0 C64 20.79 64 41.58 64 63 C42.88 63 21.76 63 0 63 C0 42.21 0 21.42 0 0 Z " fill="#22333B" transform="translate(200,194)"/>
</svg>
