<?xml version="1.0" encoding="UTF-8"?>
<svg version="1.1" xmlns="http://www.w3.org/2000/svg" width="521" height="521">
<path d="M0 0 C42.57 0 85.14 0 129 0 C129 10.56 129 21.12 129 32 C150.12 32 171.24 32 193 32 C193 42.56 193 53.12 193 64 C203.56 64 214.12 64 225 64 C225 74.56 225 85.12 225 96 C235.56 96 246.12 96 257 96 C257 106.56 257 117.12 257 128 C267.56 128 278.12 128 289 128 C289 149.12 289 170.24 289 192 C299.56 192 310.12 192 321 192 C321 297.6 321 403.2 321 512 C288.99 512 256.98 512 224 512 C224 490.88 224 469.76 224 448 C213.77 448 203.54 448 193 448 C193 469.12 193 490.24 193 512 C160.99 512 128.98 512 96 512 C96 501.44 96 490.88 96 480 C75.21 480 54.42 480 33 480 C33 490.56 33 501.12 33 512 C0.99 512 -31.02 512 -64 512 C-64 490.88 -64 469.76 -64 448 C-74.23 448 -84.46 448 -95 448 C-95 469.12 -95 490.24 -95 512 C-127.01 512 -159.02 512 -192 512 C-192 406.4 -192 300.8 -192 192 C-181.44 192 -170.88 192 -160 192 C-160 170.88 -160 149.76 -160 128 C-149.44 128 -138.88 128 -128 128 C-128 117.44 -128 106.88 -128 96 C-117.44 96 -106.88 96 -96 96 C-96 85.44 -96 74.88 -96 64 C-85.44 64 -74.88 64 -64 64 C-64 53.44 -64 42.88 -64 32 C-42.88 32 -21.76 32 0 32 C0 21.44 0 10.88 0 0 Z " fill="#23333B" transform="translate(196,2)"/>
<path d="M0 0 C10.56 0 21.12 0 32 0 C32 10.56 32 21.12 32 32 C21.77 32 11.54 32 1 32 C1 63.68 1 95.36 1 128 C-9.56 128 -20.12 128 -31 128 C-31 212.48 -31 296.96 -31 384 C-20.44 384 -9.88 384 1 384 C1 373.44 1 362.88 1 352 C11.23 352 21.46 352 32 352 C32 373.12 32 394.24 32 416 C0.32 416 -31.36 416 -64 416 C-64 310.4 -64 204.8 -64 96 C-53.44 96 -42.88 96 -32 96 C-32 74.88 -32 53.76 -32 32 C-21.44 32 -10.88 32 0 32 C0 21.44 0 10.88 0 0 Z " fill="#EFE7EA" transform="translate(68,98)"/>
<path d="M0 0 C10.56 0 21.12 0 32 0 C32 21.12 32 42.24 32 64 C42.56 64 53.12 64 64 64 C64 169.6 64 275.2 64 384 C32.32 384 0.64 384 -32 384 C-32 362.88 -32 341.76 -32 320 C-21.44 320 -10.88 320 0 320 C0 330.56 0 341.12 0 352 C10.56 352 21.12 352 32 352 C32 267.52 32 183.04 32 96 C21.44 96 10.88 96 0 96 C0 64.32 0 32.64 0 0 Z " fill="#F2EAED" transform="translate(453,130)"/>
<path d="M0 0 C21.12 0 42.24 0 64 0 C64 10.56 64 21.12 64 32 C74.56 32 85.12 32 96 32 C96 53.12 96 74.24 96 96 C85.44 96 74.88 96 64 96 C64 106.56 64 117.12 64 128 C42.88 128 21.76 128 0 128 C0 117.44 0 106.88 0 96 C-10.56 96 -21.12 96 -32 96 C-32 74.88 -32 53.76 -32 32 C-21.44 32 -10.88 32 0 32 C0 21.44 0 10.88 0 0 Z " fill="#F4ECEF" transform="translate(325,162)"/>
<path d="M0 0 C21.12 0 42.24 0 64 0 C64 10.56 64 21.12 64 32 C74.56 32 85.12 32 96 32 C96 53.12 96 74.24 96 96 C85.44 96 74.88 96 64 96 C64 106.56 64 117.12 64 128 C42.88 128 21.76 128 0 128 C0 117.44 0 106.88 0 96 C-10.56 96 -21.12 96 -32 96 C-32 74.88 -32 53.76 -32 32 C-21.44 32 -10.88 32 0 32 C0 21.44 0 10.88 0 0 Z " fill="#F4ECEF" transform="translate(133,162)"/>
<path d="M0 0 C10.56 0 21.12 0 32 0 C32 10.56 32 21.12 32 32 C52.79 32 73.58 32 95 32 C95 42.56 95 53.12 95 64 C63.65 64 32.3 64 0 64 C0 42.88 0 21.76 0 0 Z " fill="#F4ECEF" transform="translate(133,450)"/>
<path d="M0 0 C41.91 0 83.82 0 127 0 C127 10.56 127 21.12 127 32 C85.09 32 43.18 32 0 32 C0 21.44 0 10.88 0 0 Z " fill="#F5EDF0" transform="translate(197,2)"/>
<path d="M0 0 C10.23 0 20.46 0 31 0 C31 21.12 31 42.24 31 64 C-0.35 64 -31.7 64 -64 64 C-64 53.44 -64 42.88 -64 32 C-42.88 32 -21.76 32 0 32 C0 21.44 0 10.88 0 0 Z " fill="#F5EDF0" transform="translate(357,450)"/>
<path d="M0 0 C20.79 0 41.58 0 63 0 C63 21.12 63 42.24 63 64 C42.21 64 21.42 64 0 64 C0 42.88 0 21.76 0 0 Z " fill="#F5EDF0" transform="translate(229,418)"/>
<path d="M0 0 C20.79 0 41.58 0 63 0 C63 10.56 63 21.12 63 32 C42.21 32 21.42 32 0 32 C0 21.44 0 10.88 0 0 Z " fill="#F5EDF0" transform="translate(325,34)"/>
<path d="M0 0 C20.79 0 41.58 0 63 0 C63 10.56 63 21.12 63 32 C42.21 32 21.42 32 0 32 C0 21.44 0 10.88 0 0 Z " fill="#F5EDF0" transform="translate(133,34)"/>
<path d="M0 0 C10.23 0 20.46 0 31 0 C31 10.56 31 21.12 31 32 C20.77 32 10.54 32 0 32 C0 21.44 0 10.88 0 0 Z " fill="#F5EDF0" transform="translate(389,418)"/>
<path d="M0 0 C10.23 0 20.46 0 31 0 C31 10.56 31 21.12 31 32 C20.77 32 10.54 32 0 32 C0 21.44 0 10.88 0 0 Z " fill="#F5EDF0" transform="translate(101,418)"/>
<path d="M0 0 C10.23 0 20.46 0 31 0 C31 10.56 31 21.12 31 32 C20.77 32 10.54 32 0 32 C0 21.44 0 10.88 0 0 Z " fill="#F5EDF0" transform="translate(421,98)"/>
<path d="M0 0 C10.23 0 20.46 0 31 0 C31 10.56 31 21.12 31 32 C20.77 32 10.54 32 0 32 C0 21.44 0 10.88 0 0 Z " fill="#F5EDF0" transform="translate(69,98)"/>
<path d="M0 0 C10.23 0 20.46 0 31 0 C31 10.56 31 21.12 31 32 C20.77 32 10.54 32 0 32 C0 21.44 0 10.88 0 0 Z " fill="#F5EDF0" transform="translate(389,66)"/>
<path d="M0 0 C10.23 0 20.46 0 31 0 C31 10.56 31 21.12 31 32 C20.77 32 10.54 32 0 32 C0 21.44 0 10.88 0 0 Z " fill="#F5EDF0" transform="translate(101,66)"/>
</svg>
